<?xml version="1.0" encoding="UTF-8"?><svg xmlns="http://www.w3.org/2000/svg" xmlns:xlink="http://www.w3.org/1999/xlink" height="3956.4" preserveAspectRatio="xMidYMid meet" version="1.0" viewBox="0.0 0.0 3524.8 3956.4" width="3524.8" zoomAndPan="magnify"><defs><clipPath id="a"><path d="M 0 0 L 3524.808594 0 L 3524.808594 3956.390625 L 0 3956.390625 Z M 0 0"/></clipPath></defs><g><g id="change1_1"><path d="M 2298.78125 1651.867188 L 1632.855469 1651.867188 C 1622.757812 1740.160156 1595.007812 1899.089844 1582.398438 1967.191406 C 1645.453125 1916.746094 1738.785156 1878.914062 1882.546875 1878.914062 C 2210.488281 1878.914062 2394.648438 2116.027344 2394.648438 2431.351562 C 2394.648438 2751.703125 2218.0625 3046.851562 1769.074219 3046.851562 C 1441.128906 3046.851562 1201.488281 2877.84375 1163.648438 2582.691406 L 1524.375 2582.691406 C 1557.175781 2696.203125 1635.375 2769.363281 1776.632812 2769.363281 C 1948.160156 2769.363281 2031.398438 2643.242188 2031.398438 2461.625 C 2031.398438 2287.539062 1968.335938 2163.953125 1776.632812 2163.953125 C 1622.757812 2163.953125 1559.6875 2232.039062 1521.847656 2330.425781 L 1196.445312 2287.539062 C 1241.847656 2078.195312 1312.488281 1583.765625 1340.238281 1356.734375 L 2349.226562 1356.734375 L 2298.78125 1651.867188" fill="#e60012"/></g><g id="change1_2"><path d="M 2834.886719 1574.78125 L 3031.410156 1461.316406 C 2902.621094 1239.113281 2717.277344 1053.769531 2495.074219 924.980469 L 2381.609375 1121.503906 C 2569.40625 1230.335938 2726.054688 1386.984375 2834.886719 1574.78125" fill="#e60012"/></g><g id="change1_3"><path d="M 2381.609375 1121.496094 L 2495.058594 924.996094 C 2279.328125 799.9375 2029.195312 727.964844 1762.410156 727.964844 L 1762.410156 954.984375 C 1987.878906 954.984375 2199.273438 1015.808594 2381.609375 1121.496094" fill="#e60012"/></g><g id="change1_4"><path d="M 3001.40625 2193.980469 L 3228.425781 2193.980469 C 3228.425781 1927.195312 3156.429688 1677.0625 3031.394531 1461.332031 L 2834.894531 1574.78125 C 2940.5625 1757.117188 3001.40625 1968.511719 3001.40625 2193.980469" fill="#e60012"/></g><g id="change1_5"><path d="M 3001.40625 2193.980469 C 3001.40625 2419.460938 2940.5625 2630.859375 2834.894531 2813.191406 L 3031.394531 2926.640625 C 3156.429688 2710.910156 3228.425781 2460.769531 3228.425781 2193.980469 L 3001.40625 2193.980469" fill="#e60012"/></g><g id="change1_6"><path d="M 2381.597656 3266.472656 L 2495.058594 3462.980469 C 2717.261719 3334.191406 2902.605469 3148.851562 3031.390625 2926.644531 L 2834.890625 2813.191406 C 2726.039062 3000.992188 2569.410156 3157.632812 2381.597656 3266.472656" fill="#e60012"/></g><g clip-path="url(#a)" id="change2_2"><path d="M 1762.40625 3918.550781 C 811.480469 3918.550781 37.835938 3144.910156 37.835938 2193.984375 C 37.835938 1243.0625 811.480469 469.429688 1762.40625 469.429688 C 2713.328125 469.429688 3486.957031 1243.0625 3486.957031 2193.984375 C 3486.957031 3144.910156 2713.328125 3918.550781 1762.40625 3918.550781 Z M 1411.027344 69.375 C 1411.027344 51.972656 1425.167969 37.84375 1442.558594 37.84375 L 1513.949219 37.84375 L 1513.949219 417.707031 L 1411.027344 417.707031 Z M 2121.058594 69.375 L 2121.058594 417.707031 L 2031.027344 417.707031 L 2031.027344 37.84375 L 2089.527344 37.84375 C 2106.917969 37.84375 2121.058594 51.972656 2121.058594 69.375 Z M 1868.328125 417.707031 L 1781.308594 417.707031 L 1781.308594 37.84375 L 1868.328125 37.84375 Z M 1993.1875 417.707031 L 1906.15625 417.707031 L 1906.15625 37.84375 L 1993.1875 37.84375 Z M 1672.347656 37.84375 L 1743.46875 37.84375 L 1743.46875 417.707031 L 1672.347656 417.707031 Z M 1551.777344 417.707031 L 1551.777344 37.84375 L 1634.507812 37.84375 L 1634.507812 417.707031 Z M 2050.675781 455.546875 L 2158.898438 455.546875 L 2158.898438 69.375 C 2158.898438 31.121094 2127.777344 0.00390625 2089.527344 0.00390625 L 1442.558594 0.00390625 C 1404.316406 0.00390625 1373.1875 31.121094 1373.1875 69.375 L 1373.1875 455.546875 L 1474.128906 455.546875 C 639.042969 593.585938 0 1320.394531 0 2193.984375 C 0 3165.769531 790.613281 3956.390625 1762.40625 3956.390625 C 2734.203125 3956.390625 3524.800781 3165.769531 3524.800781 2193.984375 C 3524.800781 1320.394531 2885.757812 593.585938 2050.675781 455.546875" fill="#231815"/></g><g id="change2_1"><path d="M 2502.015625 3437.171875 L 2395.269531 3252.28125 C 2390.070312 3243.269531 2378.496094 3240.089844 2369.429688 3245.359375 C 2360.386719 3250.589844 2357.296875 3262.160156 2362.519531 3271.199219 L 2469.222656 3456.039062 C 2265.195312 3570.761719 2030.828125 3637.378906 1781.320312 3640.609375 L 1781.320312 3426.929688 C 1781.320312 3416.488281 1772.851562 3408.011719 1762.410156 3408.011719 C 1751.960938 3408.011719 1743.492188 3416.488281 1743.492188 3426.929688 L 1743.492188 3640.609375 C 1493.992188 3637.378906 1259.621094 3570.761719 1055.601562 3456.050781 L 1162.3125 3271.199219 C 1167.53125 3262.160156 1164.441406 3250.589844 1155.390625 3245.359375 C 1146.351562 3240.140625 1134.769531 3243.238281 1129.550781 3252.28125 L 1022.820312 3437.171875 C 816.109375 3313.730469 642.671875 3140.289062 519.230469 2933.589844 L 704.09375 2826.851562 C 713.144531 2821.628906 716.238281 2810.050781 711.015625 2801.011719 C 705.792969 2791.96875 694.214844 2788.839844 685.175781 2794.089844 L 500.355469 2900.800781 C 385.640625 2696.78125 319.007812 2462.410156 315.78125 2212.898438 L 529.457031 2212.898438 C 539.902344 2212.898438 548.375 2204.429688 548.375 2193.980469 C 548.375 2183.539062 539.902344 2175.070312 529.457031 2175.070312 L 315.78125 2175.070312 C 319.007812 1925.558594 385.632812 1691.191406 500.347656 1487.1875 L 685.175781 1593.890625 C 688.15625 1595.625 691.40625 1596.421875 694.621094 1596.421875 C 701.148438 1596.421875 707.515625 1593.035156 711.015625 1586.980469 C 716.238281 1577.914062 713.144531 1566.339844 704.09375 1561.121094 L 519.222656 1454.394531 C 642.664062 1247.679688 816.105469 1074.234375 1022.808594 950.796875 L 1129.550781 1135.675781 C 1133.050781 1141.734375 1139.417969 1145.121094 1145.941406 1145.121094 C 1149.160156 1145.121094 1152.410156 1144.324219 1155.390625 1142.589844 C 1164.441406 1137.371094 1167.53125 1125.816406 1162.3125 1116.75 L 1055.601562 931.929688 C 1259.609375 817.21875 1493.992188 750.578125 1743.492188 747.347656 L 1743.492188 961.039062 C 1743.492188 971.476562 1751.960938 979.964844 1762.410156 979.964844 C 1772.851562 979.964844 1781.320312 971.476562 1781.320312 961.039062 L 1781.320312 747.347656 C 2030.828125 750.578125 2265.195312 817.21875 2469.203125 931.929688 L 2362.519531 1116.75 C 2357.296875 1125.816406 2360.386719 1137.371094 2369.429688 1142.589844 C 2372.417969 1144.324219 2375.667969 1145.121094 2378.875 1145.121094 C 2385.429688 1145.121094 2391.765625 1141.734375 2395.269531 1135.675781 L 2501.996094 950.796875 C 2708.710938 1074.234375 2882.152344 1247.679688 3005.59375 1454.394531 L 2820.714844 1561.121094 C 2811.667969 1566.339844 2808.558594 1577.914062 2813.78125 1586.980469 C 2817.285156 1593.035156 2823.640625 1596.421875 2830.195312 1596.421875 C 2833.382812 1596.421875 2836.632812 1595.625 2839.621094 1593.890625 L 3024.480469 1487.1875 C 3139.171875 1691.191406 3205.792969 1925.558594 3209.039062 2175.070312 L 2995.351562 2175.070312 C 2984.914062 2175.070312 2976.425781 2183.539062 2976.425781 2193.980469 C 2976.425781 2204.429688 2984.914062 2212.898438 2995.351562 2212.898438 L 3209.039062 2212.898438 C 3205.792969 2462.398438 3139.171875 2696.769531 3024.480469 2900.78125 L 2839.621094 2794.089844 C 2830.535156 2788.839844 2819.019531 2791.96875 2813.78125 2801.011719 C 2808.558594 2810.050781 2811.667969 2821.628906 2820.714844 2826.851562 L 3005.59375 2933.570312 C 2882.152344 3140.28125 2708.710938 3313.71875 2502.015625 3437.171875 Z M 3049.582031 2932.960938 C 3175.113281 2715.148438 3247.351562 2462.917969 3247.351562 2193.980469 C 3247.351562 1925.0625 3175.113281 1672.824219 3049.582031 1455.011719 C 3049.183594 1453.859375 3049.042969 1452.621094 3048.40625 1451.507812 C 3047.769531 1450.410156 3046.792969 1449.675781 3045.976562 1448.738281 C 2916.179688 1226.066406 2730.246094 1040.128906 2507.53125 910.355469 C 2506.636719 909.558594 2505.9375 908.621094 2504.863281 907.984375 C 2503.765625 907.367188 2502.570312 907.226562 2501.4375 906.828125 C 2283.625 781.277344 2031.367188 709.039062 1762.410156 709.039062 C 1493.460938 709.039062 1241.222656 781.277344 1023.410156 906.828125 C 1022.242188 907.207031 1021.039062 907.347656 1019.929688 907.984375 C 1018.839844 908.621094 1018.140625 909.578125 1017.230469 910.375 C 794.527344 1040.167969 608.589844 1226.105469 478.800781 1448.796875 C 478.007812 1449.714844 477.039062 1450.410156 476.410156 1451.507812 C 475.777344 1452.621094 475.644531 1453.816406 475.246094 1454.972656 C 349.699219 1672.785156 277.464844 1925.023438 277.464844 2193.980469 C 277.464844 2462.929688 349.695312 2715.167969 475.234375 2932.96875 C 475.628906 2934.140625 475.769531 2935.359375 476.410156 2936.46875 C 476.890625 2937.300781 477.777344 2937.671875 478.355469 2938.398438 C 608.160156 3161.429688 794.25 3347.628906 1017.191406 3477.5625 C 1018.109375 3478.378906 1018.828125 3479.351562 1019.929688 3479.988281 C 1020.800781 3480.488281 1021.769531 3480.378906 1022.679688 3480.730469 C 1240.648438 3606.53125 1493.160156 3678.929688 1762.410156 3678.929688 C 2031.648438 3678.929688 2284.144531 3606.53125 2502.113281 3480.742188 C 2503.03125 3480.390625 2504.007812 3480.5 2504.882812 3479.988281 C 2506 3479.351562 2506.714844 3478.371094 2507.652344 3477.550781 C 2730.585938 3347.609375 2916.679688 3161.402344 3046.472656 2938.378906 C 3047.050781 2937.640625 3047.929688 2937.28125 3048.40625 2936.4375 C 3049.042969 2935.328125 3049.183594 2934.128906 3049.582031 2932.960938" fill="#231815"/></g></g></svg>