<?xml version="1.0" encoding="UTF-8"?><svg xmlns="http://www.w3.org/2000/svg" xmlns:xlink="http://www.w3.org/1999/xlink" height="374.1" preserveAspectRatio="xMidYMid meet" version="1.0" viewBox="-1.6 -1.9 296.4 374.1" width="296.4" zoomAndPan="magnify"><g id="change1_1"><path d="M292.9,15.8c1.9-2.4-1.7-4.5-3.5-2.2c-5.2,6.6-10.2,13.3-15.5,19.8c-5.2,6.3-16.7,4.3-24.2,4.7 c-0.2,0-0.3,0-0.5,0c2-3.8,3.2-8.3,4.7-12.2c1.1-2.8-3.1-3.7-4-1.2c-0.8,2.3-1.9,4.7-2.9,7.2c-1,1.9-2.1,3.7-3.3,5.5 c-0.2,0.4-0.5,0.7-0.7,1.1c-8,0.5-15.9,1.1-23.9,1.8c-4.6-0.8-9.5-0.2-14.1,1.3c4.3-12.3,8.9-24.5,13.6-36.7c2-5.2-5.5-6.8-7.4-2.1 c-4.7,11.6-9.1,23.4-13.5,35.1c-1-4.8-2.3-9.6-3.2-14.2c-0.8-3.7-6.5-1.9-5.8,1.3c1.6,7.6,2.5,16,5,23.6 C187.9,64,181.9,79.3,175,94.3c-4.3,9.3-10.2,10.7-15.7,6.8c-1.4-8.2-3.2-16.3-5.5-24.3c-2.5-8.6-5.7-16.8-9.5-24.7 c6.2-4.3,12.3-9,18-14c2.8-2.5,6-4.9,8.1-8.1c2.1-3.1,3.5-6.9,5.1-10.3c1.1-2.2-2.2-2.7-3.2-0.9c-1.7,3.2-3.2,7.1-5.5,9.9 c-2.6,3.2-6.8,5.9-10,8.4c-4.7,3.8-9.6,7.2-14.6,10.6c-4-7.8-8.4-15.4-13.1-22.8c-1.7-2.7-7,0.8-5.4,3.5 c9.4,15.8,15.7,33.4,20.9,50.9c0.6,2.1,1.2,4.2,1.7,6.4c-7-7.9-15.1-15-22.8-22c-10.1-9.1-21-16.5-32.4-23.3 c-2-5.6-5.2-10.9-7.7-16.1c-1.5-3.2-6.8-0.3-5.4,2.7c1.2,2.5,2.4,5.3,3.6,8c-8.1-4.6-16.4-9-24.7-13.6c-2-1.1-4.1-2.2-6.3-2.4 c-2.3-0.2-4.8,1-5.5,3.1c-1,3.1,1.9,5.9,4.5,7.8C70.4,45.5,95,59.7,110.1,81.2c6.8,9.6,12.6,19.9,17.5,30.6 c-5.6-2.8-11.3-5.6-17-8.2c-11.4-5.3-23.4-11.4-36.2-11.8c-0.3,0-0.6,0-0.9,0c0.2-0.9,0.3-1.8,0.4-2.8c0.3-2,0.6-4.1,0.9-6.1 c0.5-3.3-4.5-3-4.9-0.1L69,89c-0.1,1-0.4,2.1-0.5,3.1c-10.5,1.1-20.3,5.8-30.3,9.2c-3.9,1.3-8,2.4-12.1,2.9 c6.6-7.2,12.3-15,17.3-23.5c1.7-2.9-3-3.9-4.6-1.3c-1.4,2.4-2.9,4.7-4.4,7c-4.6-1.6-9.4-2.7-14.1-4c-2.9-0.8-5.4,3.9-2.1,4.9 c4.3,1.3,8.6,2.7,12.9,3.8c-3.4,4.5-7,8.8-10.9,12.8c-0.2,0.2-0.3,0.4-0.4,0.6c-5.5-0.2-10.8-1.7-15.4-5.3c-2.5-2-6,2.4-3.4,4.6 c20.1,16.4,44.5-2.5,65.4-5.4c9.4-1.3,18.8,1.6,27.6,5.4c-7.1,2-14.1,3.8-21.4,5.3c-3.1,0.7-3.1,5.7,0.5,5 c9.6-1.9,19.2-3.9,28.6-6.8c1.5,0.7,3,1.4,4.5,2.1c6.2,2.9,12.3,5.9,18.4,9c2.6,1.3,5.1,2.8,7.7,4.2c2.1,5.3,4,10.6,5.6,16.1 c-4.4-4.4-8.9-8.7-13.6-12.8c-3.2-2.8-9.4,3.4-6.1,6.4c8.2,7.5,15.9,15.5,23.1,24.1c0.6,0.7,1.1,1.3,1.7,2 c8.3,40,5.3,81.7-3.5,121.5c-1.7,7.6-3.6,15.1-5.7,22.6c-1,3.5-2,6.9-3,10.4c0.1-5.9-0.4-11.8-1.1-17.7c-0.5-3.7-6.1-2-5.7,1.3 c1.1,10.8-0.1,21.7-2.3,32.4c-1.3,6.1-3.8,11.9-5.9,17.7c-0.2,0.3-0.5,0.6-0.8,0.8c-5.1,5.2-3.6,13.4-5.7,20c-0.2,0.5-0.2,1-0.1,1.4 c0.1,0,0.2,0,0.3,0c4.8,0.8,9.2,0.8,14-0.3c3.7-0.9,7.3-2.5,11.1-2.2c2.4,0.1,5.5,1.3,8.1,3.1c0.7-0.5,1.5-0.8,2.6-0.7 c2.8,0.3,5.3-0.9,8-1.3c3.3-0.6,6.5,0.6,8.8,2.9c0.6,0.6,0.9,1.2,1.1,1.9c4.1,0,8.2-0.1,12.4-0.1c1.8,0,3.7-1.1,4.6-2.8 c0.1,0,0.2,0,0.3,0c3.3-0.3,6.1-3.6,4-6.8c-8.1-12.1-4.5-27.3-1.9-40.5c2.9-14.8,3.3-29.5,2.9-44.4c-0.8-26.9-3.2-56.9,13.1-80.2 c2.6-3.7-2.5-6.5-5.1-3.2c-2.5,3.2-4.7,6.6-6.5,10c0-2.2,0-4.5,0-6.7c0-1.9,0-3.8-0.1-5.8c0.7-3.7,1.3-7.3,2.1-10.9 c2.6-12.2,5.5-24.4,8.7-36.4c0.1-0.3,0.2-0.7,0.3-1c3.7-0.8,7.4-1.8,10.7-2.4c7.7-1.4,15.7-2.5,23.2-5.1 c14.1-4.8,22.5-16.8,35.2-23.7c2.7-1.5,1.3-5.7-1.7-4.2c-12.3,6.5-20.9,18.1-34.5,22.2c-2.3,0.7-4.6,1.2-6.9,1.7 c0.3-0.7,0.7-1.4,1-2.1c1.8-3.8,3.3-7.7,4.5-11.7c1-3.3-3.7-4.3-4.6-1.3c-1.2,3.8-2.5,7.5-4.2,11.1c-0.8,1.8-1.9,3.5-2.7,5.2 c-2.6,0.5-5.3,0.9-7.9,1.4c-3.4,0.6-6.7,1.2-10.1,1.8c2.3-8.3,4.9-16.5,8.2-24.4c3.7-8.8,8.3-17.8,18-21.1c4.1-1.4,4.2-8.4-0.7-6.9 c-11.9,3.8-19.3,13.2-24.6,24.1c0.2-3.5,0.2-6.9,0.4-10.3c0.2-4-5.8-3.7-6-0.1c-0.3,5.9-1.2,12.4-1.1,18.5c-0.3,0.3-0.5,0.7-0.7,1.1 c-2.7,6.4-5.4,12.9-8,19.3c-0.7,0.5-1.3,1.1-1.7,2c-1.2,2.6-2.4,5.3-3.6,7.9c-1-3.6-2.1-7.2-3.4-10.7c2.6-10.3,5.3-20.7,8.3-30.9 c4.2-14.6,8.7-29.1,13.5-43.5c0.7-1,1.3-2,2.2-3.1c2.5-3.2,5.8-5.5,9.7-6.9c5.2-1.9,10.9-2,16.4-1.8c5.2,0.2,8.8,1.4,13.5-1.3 c4.4-2.5,9.8-3.7,14.5-5.8c1,0,2-0.1,3.1-0.1c2.9-0.1,5.8,0,8.5-0.3c0.1,0.1,0.3,0.3,0.5,0.4c1.7,1,3.2,2.4,4.7,3.6 c1.3,1.1,2.8,2.7,4.5,3.2c2.7,0.8,6-1.8,8.1-3.4c1.6-1.3-0.1-3.4-1.8-2.2c-0.8,0.6-2.8,2.4-4,2.3c-1.3-0.1-2.5-1.9-3.3-2.7 c-0.9-0.9-1.8-1.8-2.8-2.7c1.4-0.6,2.7-1.5,3.9-2.8C282.2,31.1,287.3,23,292.9,15.8z" fill="#724e39"/></g></svg>